<?xml version="1.0" encoding="utf-8"?>
<svg xmlns="http://www.w3.org/2000/svg" fill="none" viewBox="0 0 1024 512"><defs/><path fill="#fff" d="M0 0h1024v512H0z"/><path fill="url(#paint0_linear)" d="M634.734 199.421c13.916 39.097-7.073 92.742-50.42 126.61-43.118 33.869-108.595 47.735-147.151 20.686-38.555-26.823-50.191-94.788-31.255-140.704 18.708-46.144 68.214-70.239 117.265-70.011 49.05 0 97.872 24.322 111.561 63.419z"/><path fill="#000" d="M473.368 305.576c2.645.811 4.672 2.176 6.08 4.096 1.408 1.877 2.112 4.203 2.112 6.976 0 2.475-.661 4.651-1.984 6.528-1.28 1.835-3.136 3.264-5.568 4.288-2.389 1.024-5.205 1.536-8.448 1.536h-17.024c-1.749 0-3.093-.469-4.032-1.408-.939-.939-1.408-2.283-1.408-4.032v-34.24c0-1.749.469-3.093 1.408-4.032.939-.939 2.283-1.408 4.032-1.408h16.384c4.736 0 8.491 1.067 11.264 3.2 2.816 2.091 4.224 4.928 4.224 8.512 0 2.304-.619 4.352-1.856 6.144-1.237 1.749-2.965 3.029-5.184 3.84zm-18.816-3.968h8.384c2.219 0 3.84-.341 4.864-1.024s1.536-1.771 1.536-3.264c0-1.579-.512-2.731-1.536-3.456-1.024-.725-2.645-1.088-4.864-1.088h-8.384v8.832zm9.536 18.496c2.347 0 4.011-.363 4.992-1.088 1.024-.768 1.536-2.005 1.536-3.712 0-1.707-.512-2.923-1.536-3.648-.981-.768-2.645-1.152-4.992-1.152h-9.536v9.6h9.536zM493.036 329c-1.749 0-3.093-.469-4.032-1.408-.939-.939-1.408-2.304-1.408-4.096V289.32c0-1.749.512-3.136 1.536-4.16 1.067-1.067 2.496-1.6 4.288-1.6 1.835 0 3.285.533 4.352 1.6 1.067 1.024 1.6 2.411 1.6 4.16v30.144h14.72c3.712 0 5.568 1.6 5.568 4.8 0 1.621-.469 2.816-1.408 3.584-.896.768-2.283 1.152-4.16 1.152h-21.056zm37.009.384c-1.792 0-3.221-.512-4.288-1.536-1.024-1.067-1.536-2.496-1.536-4.288v-34.24c0-1.749.512-3.136 1.536-4.16 1.067-1.067 2.496-1.6 4.288-1.6 1.835 0 3.285.533 4.352 1.6 1.067 1.024 1.6 2.411 1.6 4.16v34.24c0 1.792-.533 3.221-1.6 4.288-1.067 1.024-2.517 1.536-4.352 1.536zm52.194-9.216c1.109 1.067 1.664 2.304 1.664 3.712 0 1.408-.534 2.645-1.6 3.712-1.067 1.067-2.326 1.6-3.776 1.6-1.579 0-3.03-.683-4.352-2.048l-18.24-18.688v15.104c0 1.792-.534 3.221-1.6 4.288-1.067 1.024-2.518 1.536-4.352 1.536-1.792 0-3.222-.512-4.288-1.536-1.024-1.067-1.536-2.496-1.536-4.288v-34.24c0-1.749.512-3.136 1.536-4.16 1.066-1.067 2.496-1.6 4.288-1.6 1.834 0 3.285.533 4.352 1.6 1.066 1.024 1.6 2.411 1.6 4.16v14.08l17.984-18.112c1.109-1.152 2.368-1.728 3.775-1.728 1.409 0 2.646.533 3.713 1.6 1.066 1.024 1.6 2.24 1.6 3.648s-.619 2.709-1.856 3.904l-13.12 12.864 14.208 14.592z"/><rect width="189" height="94" x="417" y="171" stroke="#000" stroke-width="20" rx="47"/><rect width="94" height="94" x="512" y="171" stroke="#000" stroke-width="20" rx="47"/><circle cx="463.5" cy="217.5" r="13.5" fill="#000"/><circle cx="558.5" cy="217.5" r="13.5" fill="#000"/><defs><linearGradient id="paint0_linear" x1="518" x2="518" y1="136" y2="361" gradientUnits="userSpaceOnUse"><stop stop-color="#FF1E78"/><stop offset="1" stop-color="#FF1E78" stop-opacity=".65"/></linearGradient></defs></svg>
